<?xml version="1.0" encoding="UTF-8" ?><!DOCTYPE svg PUBLIC "-//W3C//DTD SVG 1.1//EN" "http://www.w3.org/Graphics/SVG/1.1/DTD/svg11.dtd"><svg width="17px" height="17px" viewBox="0 0 180 180" version="1.1" xmlns="http://www.w3.org/2000/svg"><path stroke-width="1" stroke="black" d="M29 18 L29 19 L29 20 L29 21 L29 22 L29 23 L29 24 L29 25 L29 26 L29 27 L29 28 L29 29 L29 30 L29 31 L29 32 L29 33 L29 34 L29 35 L29 36 L29 37 L29 38 L29 39 L29 40 L30 41 L30 42 L30 43 L30 44 L30 45 L30 46 L30 47 L30 48 L30 49 L30 50 L30 51 L30 52 L30 53 L31 54 L31 55 L31 56 L31 57 L31 58 L31 59 L31 60 L31 61 L31 62 L32 63 L32 64 L32 65 L32 66 L32 67 L32 68 L32 69 L32 70 L33 71 L33 72 L33 73 L33 74 L33 75 L33 76 L34 77 L34 78 L34 79 L34 80 L34 81 L35 82 L35 83 L35 84 L35 85 L35 86 L36 87 L36 88 L36 89 L36 90 L37 91 L37 92 L37 93 L37 94 L38 95 L38 96 L38 97 L39 98 L39 99 L39 100 L40 101 L40 102 L40 103 L41 104 L41 105 L42 106 L42 107 L43 108 L43 109 L43 110 L44 111 L44 112 L45 113 L45 114 L46 115 L46 116 L47 117 L48 118 L48 119 L49 120 L49 121 L50 122 L51 123 L51 124 L52 125 L53 126 L53 127 L54 128 L55 129 L55 130 L56 131 L57 132 L58 133 L59 134 L59 135 L60 136 L61 137 L62 138 L63 139 L64 140 L65 141 L66 142 L67 143 L68 144 L69 145 L70 146 L71 147 L72 148 L73 149 L74 150 L75 151 L77 152 L78 153 L79 154 L80 155 L82 156 L83 157 L84 158 L86 159 L87 160 L89 161 L91 161 L92 160 L94 159 L95 158 L97 157 L93 156 L83 155 L81 154 L80 153 L79 152 L78 151 L76 150 L75 149 L74 148 L73 147 L72 146 L71 145 L70 144 L69 143 L68 142 L67 141 L66 140 L65 139 L64 138 L63 137 L62 136 L61 135 L60 134 L59 133 L59 132 L58 131 L57 130 L56 129 L56 128 L55 127 L54 126 L53 125 L53 124 L52 123 L51 122 L51 121 L50 120 L50 119 L49 118 L48 117 L48 116 L47 115 L47 114 L46 113 L46 112 L45 111 L45 110 L44 109 L44 108 L43 107 L43 106 L42 105 L42 104 L42 103 L41 102 L41 101 L40 100 L40 99 L40 98 L39 97 L39 96 L39 95 L38 94 L38 93 L38 92 L38 91 L37 90 L37 89 L37 88 L37 87 L36 86 L36 85 L36 84 L36 83 L35 82 L35 81 L35 80 L35 79 L35 78 L34 77 L34 76 L34 75 L34 74 L34 73 L34 72 L34 71 L33 70 L33 69 L33 68 L33 67 L33 66 L33 65 L33 64 L32 63 L32 62 L32 61 L32 60 L32 59 L32 58 L32 57 L32 56 L32 55 L31 54 L31 53 L31 52 L31 51 L31 50 L31 49 L31 48 L31 47 L31 46 L31 45 L31 44 L31 43 L30 42 L30 41 L30 40 L30 39 L30 38 L30 37 L30 36 L30 35 L30 34 L30 33 L30 32 L30 31 L30 30 L30 29 L30 28 L30 27 L30 26 L30 25 L30 24 L30 23 L30 22 L29 21 L29 20 L150 19 L150 18 Z" /><path stroke-width="1" stroke="black" d="M149 20 L149 21 L149 22 L149 23 L149 24 L149 25 L149 26 L149 27 L149 28 L149 29 L149 30 L149 31 L149 32 L149 33 L149 34 L149 35 L149 36 L149 37 L149 38 L149 39 L149 40 L149 41 L148 42 L148 43 L148 44 L148 45 L148 46 L148 47 L148 48 L148 49 L148 50 L148 51 L148 52 L148 53 L147 54 L147 55 L147 56 L147 57 L147 58 L147 59 L147 60 L147 61 L147 62 L147 63 L146 64 L146 65 L146 66 L146 67 L146 68 L146 69 L146 70 L145 71 L145 72 L145 73 L145 74 L145 75 L145 76 L144 77 L144 78 L144 79 L144 80 L144 81 L143 82 L143 83 L143 84 L143 85 L143 86 L142 87 L142 88 L142 89 L142 90 L141 91 L141 92 L141 93 L140 94 L140 95 L140 96 L140 97 L139 98 L139 99 L138 100 L138 101 L138 102 L137 103 L137 104 L137 105 L136 106 L136 107 L135 108 L135 109 L134 110 L134 111 L133 112 L133 113 L132 114 L132 115 L131 116 L131 117 L130 118 L130 119 L129 120 L128 121 L128 122 L127 123 L126 124 L126 125 L125 126 L124 127 L124 128 L123 129 L122 130 L121 131 L121 132 L120 133 L119 134 L118 135 L117 136 L117 137 L116 138 L115 139 L114 140 L113 141 L112 142 L111 143 L110 144 L109 145 L108 146 L107 147 L106 148 L104 149 L103 150 L102 151 L101 152 L100 153 L98 154 L97 155 L96 156 L98 156 L99 155 L101 154 L102 153 L103 152 L104 151 L105 150 L106 149 L108 148 L109 147 L110 146 L111 145 L112 144 L113 143 L114 142 L115 141 L115 140 L116 139 L117 138 L118 137 L119 136 L120 135 L121 134 L121 133 L122 132 L123 131 L124 130 L124 129 L125 128 L126 127 L127 126 L127 125 L128 124 L128 123 L129 122 L130 121 L130 120 L131 119 L131 118 L132 117 L133 116 L133 115 L134 114 L134 113 L135 112 L135 111 L136 110 L136 109 L136 108 L137 107 L137 106 L138 105 L138 104 L138 103 L139 102 L139 101 L140 100 L140 99 L140 98 L141 97 L141 96 L141 95 L141 94 L142 93 L142 92 L142 91 L143 90 L143 89 L143 88 L143 87 L144 86 L144 85 L144 84 L144 83 L144 82 L145 81 L145 80 L145 79 L145 78 L145 77 L145 76 L146 75 L146 74 L146 73 L146 72 L146 71 L146 70 L147 69 L147 68 L147 67 L147 66 L147 65 L147 64 L147 63 L147 62 L148 61 L148 60 L148 59 L148 58 L148 57 L148 56 L148 55 L148 54 L148 53 L148 52 L149 51 L149 50 L149 49 L149 48 L149 47 L149 46 L149 45 L149 44 L149 43 L149 42 L149 41 L149 40 L149 39 L150 38 L150 37 L150 36 L150 35 L150 34 L150 33 L150 32 L150 31 L150 30 L150 29 L150 28 L150 27 L150 26 L150 25 L150 24 L150 23 L150 22 L150 21 L150 20 Z" /><path stroke-width="1" stroke="black" d="M110 23 L105 24 L101 25 L98 26 L96 27 L93 28 L91 29 L89 30 L87 31 L85 32 L84 33 L82 34 L81 35 L79 36 L78 37 L77 38 L76 39 L74 40 L73 41 L72 42 L71 43 L70 44 L69 45 L68 46 L68 47 L67 48 L66 49 L65 50 L64 51 L64 52 L63 53 L62 54 L61 55 L61 56 L60 57 L60 58 L59 59 L58 60 L58 61 L57 62 L57 63 L56 64 L56 65 L56 66 L55 67 L55 68 L54 69 L54 70 L53 71 L53 72 L53 73 L52 74 L52 75 L52 76 L52 77 L51 78 L51 79 L51 80 L51 81 L50 82 L50 83 L50 84 L50 85 L50 86 L50 87 L50 88 L50 88 L51 87 L53 86 L54 85 L55 84 L56 83 L58 82 L59 81 L61 80 L63 79 L65 78 L67 77 L71 76 L117 75 L112 74 L106 73 L105 72 L104 71 L104 70 L103 69 L102 68 L102 67 L101 66 L101 65 L101 64 L100 63 L100 62 L100 61 L100 60 L100 59 L99 58 L99 57 L99 56 L99 55 L99 54 L99 53 L99 52 L99 51 L99 50 L100 49 L100 48 L100 47 L100 46 L100 45 L101 44 L101 43 L101 42 L102 41 L102 40 L102 39 L103 38 L103 37 L104 36 L104 35 L105 34 L106 33 L106 32 L107 31 L108 30 L109 29 L110 28 L111 27 L112 26 L113 25 L115 24 L116 23 Z" /><path stroke-width="1" stroke="black" d="M121 67 L120 68 L118 69 L116 70 L114 71 L112 72 L110 73 L116 73 L129 72 L130 71 L126 70 L123 69 L122 68 L121 67 Z" /><path stroke-width="1" stroke="black" d="M120 73 L120 74 L120 75 L119 76 L119 77 L118 78 L117 79 L117 80 L88 81 L89 82 L90 83 L90 84 L90 85 L89 86 L88 87 L87 88 L87 89 L86 90 L86 91 L85 92 L85 93 L85 94 L84 95 L84 96 L84 97 L84 98 L83 99 L83 100 L83 101 L83 102 L83 103 L83 104 L83 105 L83 106 L83 107 L83 108 L83 109 L83 110 L83 111 L83 112 L83 113 L83 114 L83 115 L83 116 L84 117 L84 118 L84 119 L84 120 L84 121 L84 122 L84 123 L84 124 L84 125 L84 126 L84 127 L84 128 L84 129 L84 130 L84 131 L84 132 L84 133 L84 134 L84 135 L84 136 L84 137 L84 138 L84 139 L85 140 L85 141 L85 142 L85 143 L85 144 L85 145 L85 146 L85 147 L85 148 L85 149 L85 150 L85 151 L85 152 L85 153 L85 154 L85 155 L93 155 L93 154 L94 153 L94 152 L94 151 L94 150 L94 149 L91 148 L90 147 L89 146 L88 145 L87 144 L87 143 L86 142 L86 141 L85 140 L94 139 L94 138 L94 137 L94 136 L94 135 L94 134 L94 133 L94 132 L94 131 L91 130 L90 129 L89 128 L88 127 L87 126 L87 125 L86 124 L85 123 L85 122 L84 121 L94 120 L94 119 L94 118 L94 117 L94 116 L94 115 L94 114 L91 113 L90 112 L90 111 L89 110 L88 109 L87 108 L86 107 L85 106 L85 105 L84 104 L84 103 L96 102 L97 101 L97 100 L98 99 L87 98 L87 97 L87 96 L87 95 L87 94 L87 93 L87 92 L88 91 L88 90 L88 89 L115 88 L116 87 L116 86 L115 85 L115 84 L116 83 L117 82 L118 81 L119 80 L120 79 L122 78 L123 77 L124 76 L125 75 L126 74 L128 73 Z" /><path stroke-width="1" stroke="black" d="M79 76 L82 77 L84 78 L86 79 L87 80 L115 80 L115 79 L115 78 L116 77 L117 76 Z" /><path stroke-width="1" stroke="black" d="M90 89 L90 90 L90 91 L90 92 L90 93 L89 94 L89 95 L89 96 L91 96 L93 95 L108 94 L109 93 L110 92 L111 91 L113 90 L114 89 Z" /><path stroke-width="1" stroke="black" d="M98 95 L96 96 L93 97 L91 98 L99 98 L100 97 L106 96 L107 95 Z" /><path stroke-width="1" stroke="black" d="M86 103 L87 104 L88 105 L89 106 L90 107 L91 108 L91 109 L92 110 L93 111 L93 112 L93 113 L94 113 L94 112 L94 111 L94 110 L95 109 L95 108 L95 107 L95 106 L95 105 L95 104 L96 103 Z" /><path stroke-width="1" stroke="black" d="M86 121 L87 122 L88 123 L89 124 L90 125 L91 126 L92 127 L93 128 L93 129 L93 130 L94 130 L94 129 L94 128 L94 127 L94 126 L94 125 L94 124 L94 123 L94 122 L94 121 Z" /><path stroke-width="1" stroke="black" d="M87 140 L88 141 L89 142 L90 143 L91 144 L92 145 L92 146 L93 147 L93 148 L94 148 L94 147 L94 146 L94 145 L94 144 L94 143 L94 142 L94 141 L94 140 Z" /></svg>